<?xml version="1.0" standalone="no"?>
<!DOCTYPE svg PUBLIC "-//W3C//DTD SVG 20010904//EN"
 "http://www.w3.org/TR/2001/REC-SVG-20010904/DTD/svg10.dtd">
<svg version="1.0" xmlns="http://www.w3.org/2000/svg"
 width="980.000000pt" height="980.000000pt" viewBox="0 0 980.000000 980.000000"
 preserveAspectRatio="xMidYMid meet">
<metadata>
Created by potrace 1.14, written by Peter Selinger 2001-2017
</metadata>
<g transform="translate(0.000000,980.000000) scale(0.100000,-0.100000)"
fill="#000000" stroke="none">
<path d="M4500 9789 c-925 -80 -1777 -399 -2513 -942 -364 -268 -741 -643
-1020 -1014 -475 -632 -795 -1398 -916 -2196 -69 -450 -69 -1024 0 -1474 135
-892 500 -1701 1083 -2408 124 -151 464 -491 616 -616 802 -664 1724 -1041
2765 -1129 155 -13 615 -13 770 0 1040 88 1964 465 2765 1129 148 122 489 463
611 611 664 801 1041 1725 1129 2765 13 155 13 615 0 770 -54 637 -209 1207
-479 1760 -179 367 -379 678 -645 1000 -127 154 -467 494 -621 621 -801 661
-1722 1036 -2760 1124 -139 11 -646 11 -785 -1z m685 -199 c277 -18 573 -62
829 -125 1816 -446 3204 -1934 3516 -3770 51 -300 64 -460 64 -795 0 -336 -13
-496 -64 -795 -293 -1714 -1522 -3134 -3180 -3673 -743 -242 -1533 -294 -2301
-153 -1684 310 -3082 1531 -3613 3156 -162 496 -229 926 -230 1460 0 304 8
428 45 678 184 1273 874 2401 1929 3156 863 618 1944 928 3005 861z"/>
<path d="M3160 8326 c-90 -24 -172 -95 -214 -185 l-21 -46 0 -3220 0 -3220 24
-52 c29 -66 111 -143 176 -169 49 -19 97 -19 1850 -19 1753 0 1801 0 1850 19
65 26 147 103 176 169 l24 52 0 3220 0 3220 -28 56 c-32 66 -99 132 -165 162
l-47 22 -1790 2 c-1392 1 -1800 -1 -1835 -11z m2212 -453 c25 -23 23 -59 -5
-78 -21 -13 -72 -15 -367 -13 l-343 3 -20 27 c-19 25 -19 28 -3 52 l16 26 352
0 c313 0 353 -2 370 -17z m1518 -2908 l0 -2365 -1915 0 -1915 0 0 2365 0 2365
1915 0 1915 0 0 -2365z m-1817 -2701 c57 -19 131 -83 159 -137 67 -132 9 -296
-129 -364 -142 -69 -318 -9 -388 132 -29 57 -27 175 2 231 28 53 103 119 156
138 56 19 143 20 200 0z"/>
</g>
</svg>
